HIERARCHY
ROOT hip
{
	OFFSET 0.000000 0.000000 0.000000 
	CHANNELS 6 Xposition Yposition Zposition Xrotation Zrotation Yrotation
	JOINT abdomen
	{
		OFFSET 0.000000 3.402643 0.000000 
		CHANNELS 3 Xrotation Zrotation Yrotation
		JOINT chest
		{
			OFFSET 0.000000 8.438565 -0.680529 
			CHANNELS 3 Xrotation Zrotation Yrotation
			JOINT neck
			{
				OFFSET 0.000000 10.207942 -0.272212 
				CHANNELS 3 Xrotation Zrotation Yrotation
				JOINT head
				{
					OFFSET 0.000000 3.130431 0.000000 
					CHANNELS 3 Xrotation Zrotation Yrotation
					End Site
					{
						OFFSET 0.000000 3.130435 0.000000 
					}
				}
			}
			JOINT lCollar
			{
				OFFSET 3.470700 6.669187 -0.816635 
				CHANNELS 3 Yrotation Zrotation Xrotation
				JOINT lShldr
				{
					OFFSET 3.198488 0.000000 0.000000 
					CHANNELS 3 Zrotation Yrotation Xrotation
					JOINT lForeArm
					{
						OFFSET 10.139888 0.000000 0.000000 
						CHANNELS 3 Yrotation Zrotation Xrotation
						JOINT lHand
						{
							OFFSET 8.370511 0.000000 0.000000 
							CHANNELS 3 Zrotation Yrotation Xrotation
							End Site
							{
								OFFSET 4.083176 0.000000 0.000000 
							}
						}
					}
				}
			}
			JOINT rCollar
			{
				OFFSET -3.470700 6.669187 -0.816635 
				CHANNELS 3 Yrotation Zrotation Xrotation
				JOINT rShldr
				{
					OFFSET -3.198488 0.000000 0.000000 
					CHANNELS 3 Zrotation Yrotation Xrotation
					JOINT rForeArm
					{
						OFFSET -10.139888 0.000000 0.000000 
						CHANNELS 3 Yrotation Zrotation Xrotation
						JOINT rHand
						{
							OFFSET -8.370511 0.000000 0.000000 
							CHANNELS 3 Zrotation Yrotation Xrotation
							End Site
							{
								OFFSET -4.083176 0.000000 0.000000 
							}
						}
					}
				}
			}
		}
	}
	JOINT lThigh
	{
		OFFSET 5.308129 -1.633274 1.361059 
		CHANNELS 3 Xrotation Zrotation Yrotation
		JOINT lShin
		{
			OFFSET -2.041588 -20.007561 0.000000 
			CHANNELS 3 Xrotation Zrotation Yrotation
			JOINT lFoot
			{
				OFFSET 0.000000 -19.190928 -1.224953 
				CHANNELS 3 Xrotation Yrotation Zrotation
				End Site
				{
					OFFSET 0.000000 -2.449906 4.627600 
				}
			}
		}
	}
	JOINT rThigh
	{
		OFFSET -5.308129 -1.633274 1.361059 
		CHANNELS 3 Xrotation Zrotation Yrotation
		JOINT rShin
		{
			OFFSET 2.041588 -20.007561 0.000000 
			CHANNELS 3 Xrotation Zrotation Yrotation
			JOINT rFoot
			{
				OFFSET 0.000000 -19.190928 -1.224953 
				CHANNELS 3 Xrotation Yrotation Zrotation
				End Site
				{
					OFFSET 0.000000 -2.449906 4.627600 
				}
			}
		}
	}
}
MOTION
Frames: 13
Frame Time: 0.016667
0.275670 42.805874 5.187531 -4.090630 -13.667600 -25.000700 -14.158500 -8.979110 -4.688260 10.256100 12.788200 3.914430 5.076080 4.231620 -12.592600 8.858490 6.899140 -5.967950 2.000000 -2.000000 0.000000 0.598569 -3.403340 105.323997 62.627499 -0.277708 0.121462 0.178033 -0.167908 142.785004 -2.000000 2.000000 0.000000 11.457600 -13.536900 99.026299 -62.959499 0.277004 0.121777 -0.161262 0.160993 152.589996 9.532435 4.709920 -3.034862 31.834873 4.400843 1.957672 -44.067356 22.667351 16.107508 13.221279 7.498230 20.645475 8.996560 -8.228398 -0.431230 -15.577303 -3.767821 1.562248 
0.246165 42.813862 5.123431 -3.920290 -13.699600 -25.340700 -14.190200 -8.947500 -4.675760 10.228500 12.819700 3.917160 5.349310 4.084060 -12.176600 8.906470 6.801240 -5.775030 2.000000 -2.000000 0.000000 0.559441 -3.354500 105.352997 62.695801 -0.277564 0.121537 0.178599 -0.168004 142.580002 -2.000000 2.000000 0.000000 11.613900 -13.546600 99.016602 -62.900902 0.277128 0.121713 -0.160953 0.160883 152.707001 9.451896 4.813432 -2.790423 31.794636 4.407284 1.959491 -44.099899 22.636736 16.112881 13.065260 7.540762 20.913109 8.885391 -8.159760 -0.402885 -15.517284 -3.767159 1.553949 
0.221192 42.820175 5.066217 -3.781790 -13.838200 -25.667101 -14.198100 -8.910560 -4.635610 10.213700 12.762100 3.933470 5.819220 3.940400 -11.617300 9.032980 6.692660 -5.506790 2.000000 -2.000000 0.000000 0.549678 -3.276370 105.352997 62.734901 -0.277481 0.121579 0.179409 -0.168137 142.287003 -2.000000 2.000000 0.000000 11.819000 -13.634500 99.055603 -62.891102 0.277149 0.121703 -0.160618 0.160763 152.834000 9.411139 4.983683 -2.566610 31.803387 4.412994 1.951365 -44.200413 22.650265 16.186958 12.993666 7.628123 21.220291 8.718778 -8.008162 -0.398297 -15.424134 -3.834395 1.497829 
0.202558 42.823658 5.013531 -3.712490 -13.907400 -25.903799 -14.224700 -8.903870 -4.596880 10.139900 12.718800 3.938880 6.445410 3.792390 -10.902700 9.218190 6.563920 -5.164550 2.000000 -2.000000 0.000000 0.608139 -3.217740 105.412003 62.656799 -0.277646 0.121494 0.180246 -0.168271 141.983994 -2.000000 2.000000 0.000000 12.024400 -13.839600 99.162903 -62.920399 0.277087 0.121734 -0.160207 0.160614 152.990005 9.407165 5.092905 -2.392135 31.782866 4.416271 1.942489 -44.264339 22.618914 16.213711 13.043068 7.597750 21.448021 8.379326 -7.812462 -0.387315 -15.271700 -3.878036 1.391053 
0.182599 42.829071 4.963371 -3.671640 -13.869100 -26.074200 -14.324900 -8.941580 -4.529330 9.957130 12.693700 3.928210 7.237490 3.591300 -10.040900 9.442260 6.405520 -4.753140 2.000000 -2.000000 0.000000 0.676583 -3.383780 105.373001 62.480999 -0.278019 0.121301 0.180165 -0.168258 142.014008 -2.000000 2.000000 0.000000 12.210600 -14.181500 99.406898 -62.920399 0.277087 0.121734 -0.159872 0.160493 153.117004 9.327413 5.062161 -2.314972 31.861374 4.422510 1.953903 -44.335659 22.526314 16.137699 12.910032 7.610922 21.546955 8.430774 -7.814696 -0.388643 -15.359968 -3.947219 1.394814 
0.159328 42.837452 4.912066 -3.590870 -13.850800 -26.240601 -14.442300 -8.971630 -4.474010 9.772830 12.649100 3.918250 7.923960 3.516310 -9.046620 9.617990 6.315790 -4.263530 2.000000 -2.000000 0.000000 0.638272 -3.735550 105.041000 62.363800 -0.278266 0.121171 0.178869 -0.168049 142.483002 -2.000000 2.000000 0.000000 12.337900 -14.503900 99.553200 -62.861900 0.277211 0.121671 -0.159975 0.160530 153.078003 9.247948 5.116917 -2.216531 31.840538 4.431435 1.956372 -44.286392 22.461617 16.072206 12.884790 7.508948 21.674742 8.092297 -7.587697 -0.356073 -15.274030 -3.995642 1.260713 
0.135471 42.840027 4.860974 -3.550640 -13.851300 -26.357300 -14.198500 -8.901890 -4.474320 10.209800 12.713400 4.012520 8.269620 3.388720 -7.972590 9.695450 6.227320 -3.716690 2.000000 -2.000000 0.000000 0.483574 -3.911740 104.366997 62.266102 -0.278473 0.121063 0.177790 -0.167866 142.873001 -2.000000 2.000000 0.000000 12.444400 -14.562300 99.182098 -62.773998 0.277398 0.121575 -0.159847 0.160484 153.126999 9.248208 5.239952 -1.960663 31.772900 4.420289 1.953378 -44.065624 22.436001 15.963699 12.821080 7.565285 21.751978 8.066198 -7.558195 -0.353351 -15.347424 -4.073746 1.216345 
0.113803 42.841454 4.810636 -3.600170 -13.801900 -26.377899 -14.085900 -8.907060 -4.448170 10.352700 12.741500 4.053870 8.815870 3.078880 -6.845310 9.830440 6.031240 -3.145340 2.000000 -2.000000 0.000000 0.405834 -3.902070 104.200996 62.158699 -0.278700 0.120943 0.177682 -0.167848 142.912003 -2.000000 2.000000 0.000000 12.581100 -14.855300 99.162399 -62.744701 0.277460 0.121543 -0.159641 0.160408 153.205002 9.184380 5.270713 -1.747193 31.821445 4.429589 1.965641 -43.755569 22.351851 15.743629 12.780569 7.584528 21.709713 8.145283 -7.630939 -0.350849 -15.418081 -4.188148 1.240086 
0.095430 42.845955 4.758791 -3.599870 -13.782400 -26.349800 -14.074400 -8.919000 -4.403610 10.298800 12.696700 4.061320 9.784140 2.596710 -5.743990 10.150800 5.745460 -2.584930 2.000000 -2.000000 0.000000 0.288760 -3.892330 104.152000 62.090401 -0.278844 0.120867 0.177763 -0.167862 142.882996 -2.000000 2.000000 0.000000 12.698700 -15.275200 99.298897 -62.666500 0.277625 0.121457 -0.159641 0.160408 153.205002 9.113641 5.392565 -1.519985 31.811760 4.424991 1.954675 -43.502930 22.131588 15.466537 12.747351 7.593535 21.648176 8.081751 -7.584039 -0.345894 -15.376506 -4.285365 1.188580 
0.078164 42.848923 4.703701 -3.550500 -13.841600 -26.289600 -14.096700 -8.907050 -4.336240 10.189500 12.587700 4.069230 10.966600 1.998720 -4.796140 10.587700 5.390400 -2.082950 2.000000 -2.000000 0.000000 0.102653 -3.745710 104.396004 62.129398 -0.278761 0.120911 0.178680 -0.168017 142.550995 -2.000000 2.000000 0.000000 12.787200 -15.792900 99.513496 -62.578602 0.277812 0.121361 -0.159821 0.160474 153.136993 9.055150 5.663359 -1.242504 31.764471 4.415156 1.971327 -43.180527 21.888498 15.160537 12.801052 7.534242 21.577362 7.661769 -7.244867 -0.336858 -15.225657 -4.274406 1.001531 
0.063016 42.848282 4.647701 -3.550350 -13.831800 -26.163200 -14.163300 -8.939270 -4.237780 9.999710 12.475000 4.068530 11.630300 1.764190 -3.762830 10.771900 5.223120 -1.538090 2.000000 -2.000000 0.000000 -0.084173 -3.520760 104.953003 62.158699 -0.278700 0.120943 0.180084 -0.168245 142.042999 -2.000000 2.000000 0.000000 12.943900 -16.291000 99.669502 -62.539600 0.277894 0.121318 -0.159693 0.160427 153.186005 8.882269 5.843666 -0.985807 31.910450 4.427559 1.964999 -42.749001 21.711435 14.822929 12.749884 7.653533 21.413137 7.723537 -7.306773 -0.321530 -15.336389 -4.325094 1.003297 
0.048159 42.848537 4.599081 -3.618630 -13.694400 -25.950100 -14.211200 -8.990240 -4.133950 9.843900 12.408600 4.087630 11.819500 1.818610 -2.567130 10.732600 5.213920 -0.917785 2.000000 -2.000000 0.000000 -0.299447 -3.589000 105.139000 61.992699 -0.279050 0.120758 0.180327 -0.168283 141.955002 -2.000000 2.000000 0.000000 13.129500 -16.642599 99.698601 -62.520000 0.277936 0.121296 -0.159026 0.160181 153.440002 8.768886 5.881560 -0.849833 31.942757 4.411987 1.980096 -42.261356 21.579657 14.511323 12.760594 7.549202 21.133602 7.636687 -7.241149 -0.306151 -15.391548 -4.333646 0.952301 
0.034494 42.855507 4.560694 -3.676200 -13.518100 -25.615200 -14.212000 -9.019410 -4.075460 9.839220 12.350200 4.106500 12.232600 1.784440 -1.504020 10.820200 5.164310 -0.359800 2.000000 -2.000000 0.000000 -0.601697 -3.882110 104.924004 61.768101 -0.279522 0.120505 0.179436 -0.168142 142.276993 -2.000000 2.000000 0.000000 13.227100 -16.896500 99.659401 -62.461498 0.278060 0.121232 -0.158539 0.160000 153.625000 8.657870 5.890014 -0.845924 31.876507 4.392756 1.985271 -41.800743 21.339165 14.138391 12.692866 7.520638 20.747009 7.709816 -7.292754 -0.320982 -15.540511 -4.389104 0.938748 
